<svg xmlns="http://www.w3.org/2000/svg" viewBox="0 0 480.6 480.6"><path d="M365.4 317.9c-15.7-15.5-35.3-15.5-51 0-11.8 11.8-23.7 23.6-35.4 35.6-3.2 3.3-6 4-9.8 1.8-7.7-4.2-16-7.6-23.3-12.2a369.2 369.2 0 0 1-89-81 210.9 210.9 0 0 1-32-51.1c-1.5-3.8-1.2-6.3 1.9-9.4 11.9-11.5 23.5-23.3 35.2-35.1 16.3-16.4 16.3-35.6-.1-52.1l-28-28c-9.5-9.6-19-19.3-28.7-28.8-15.7-15.3-35.3-15.3-51 .1-12 11.8-23.4 23.9-35.6 35.5A58 58 0 0 0 .4 132.3c-2 24.9 4.2 48.4 12.8 71.3A433.3 433.3 0 0 0 90 331.7 475.9 475.9 0 0 0 247.7 455c27.6 13.4 56.2 23.7 87.3 25.4 21.4 1.2 40-4.2 54.9-20.9 10.2-11.4 21.7-21.8 32.5-32.7 16-16.2 16-35.8.2-51.8l-57.2-57.1zM346.3 238.2l36.9-6.3a165 165 0 0 0-46.1-89A164 164 0 0 0 243 96l-5.2 37.1a127.3 127.3 0 0 1 72.8 36.3 127.2 127.2 0 0 1 35.6 68.8zM404 77.8A272 272 0 0 0 248 0l-5.2 37.1a236 236 0 0 1 134.8 67.2c34.9 34.9 57.8 79 66 127.5l37-6.3A274 274 0 0 0 404 77.8z"/></svg>
