<svg xmlns="http://www.w3.org/2000/svg" width="432" height="467" fill-rule="evenodd" clip-rule="evenodd" viewBox="0 0 97.2 105.1"><path fill="#D8D3D0" d="M86.7 43v.2a23 23 0 0 0 5.1-2.1c-2 1.6-3.6 2.3-5 2.6 4.8 2.5 8.6-3.7 10.4-5a17 17 0 0 0-7.7 1c-1.2 1-2.3 1.6-2.8 3.3zm-49-43h-1.3c-.3 1.7 1 1.8 1.4 2.8-1.4-.4-3.2-.7-4.1-.8-1.3-.2-2.1.2-2.3 1-.2.7 1.6 1.5 3 1.9-1 .5-3.7 1.8-3 2.6.6.8 3.9-.5 4.7-1 .6-.2 1.6-.3 3-1.7-.2-.5-1.6-.6-2-.8.8 0 1.3 0 2-.2-.3-.5-.4-.9-.1-1.2.2.4.5.3.5.7v.2c.1 3.6 4.2 3.7 6 2.4l.3-.3c0 .7.2.8.8 1.2-1.2-.2-1.5 0-1.6 0l1 3.4s-1.4-3-1.7-3.2c-.6.1-.5 2.2-.5 2.6-.3-.8-.2-2.2-.4-2.3l-1-.2c0 .1-.7 1.6-.5 1.7-.2-.5.3-1.1.1-1.7V7c-.2 0-.5-.2-.6-.1-.7.6-1.5 2.4-2.1 3 0 0 1.4-2.4 1.2-3.4l-1.8.9c.7-.4.7-.6 1.5-1.2l-.3-.4-3.8.7c-.5.7-1.3 1.7-1 2.2.4.5 1.7.3 2.3 0l-.7.7H36.8l-.4.3c-.5.7-.7 1.3.3 1.5-.2.5-.3 1.4 0 1.6 1 .6 3.5-1.6 5.2-3.8-.1.6-1 5.7-.4 5.8 1.2.1 1.9-3.7 2.2-5.1.5 1 1.5 3.1 2 2.8.7-.3.6-1.2.4-2 .7.6 2.5 2.7 3 2.4 1.3-1-.5-3.3-1.2-4.2 2.6 1.2 4.5.6 3.3-.5-1.4-1.4-5-2.5-5.4-2.7.3-.7 0-1.3-.8-1.2-.7-3.2-3.8-2.4-4.2-1.9-.5-.3-1.1 0-1.3.5v-.4l-.4-1C38.7.5 38 .2 37.7 0zm-8.5 0H26c1.1 1.2 2.2 1.8 3.2 1.3.4-.2.3-.8 0-1.3zm-4.6 0h-2.3c.5 1.5.8 2.5 2.3 3.5 1 .2.5-1.7 0-3.5zm-2.7 0H17L16 3.1c.2 1 1.5-.1 3-2.6-.7 1.3-.9 3.7.3 4.5.7 0 .6-1.1.8-3.4C21.3 3 21.7 1.1 22 0zM0 23.8v8.4l2.2 2.6.4-.9c.3-.9.7-.8 1.6-.9h.4l.8-.2c.4 0 .6 0 1 .2.3.1.6.3.8.6-.3-1-.9-2-.6-2.5 0 1 .8 2.3 1.1 3 .4-.7.9-1.4 1.4-1.8 0-1.5-.7-3.1.3-5-.8 2.7 0 3.3.3 4.6l.9-.3c0-1 0-2.7.8-3.4a4.6 4.6 0 0 0-.2 3.3c1 0 1.9.1 2.4.8.4.4.5 1 .5 1.7 1-1.1 2.2-1.6 3.6-1 .8.3 1.8.7 2 1.6.2.4.2 1 .3 1.3l.2.7c1.4.2 2.3-.3 3.2-1.5-1.2 2.2-2.1 2.3-3 2 .5 1 0 2.3-.8 3.1.6.2 1.3 1 1.5 1.6l.2 1c.4.3 1.1.5 1.8.2-.7.7-1.4.4-1.8.2 0 .5-.2 1-.4 1.5-.4 1-.8 1.5-1.9 1.9l-1.3.6c-.1 1.5.7 2.3 2 3-1.3-.4-2.6-1.2-2.7-2.5l-.2.2c-1.3.9-2-2.7-2-3.4v-.2.3c.4.8.8 2 1.2 2.6.1.1.3.4.4.3.5-.5 1-.8 1.5-1.1l1.5-.7c.7-.4 1-1.3 1.3-2 .3-1 .2-2-.5-2.8l-.7-.6a3.3 3.3 0 0 1-2.7 1.2c-.6 0-.6-.2-1-.5l-.3-.1c.3 1.3 0 2.7-.9 3.5-.5.5-1.4.9-2.2.6.5 0 .8 0 1.3-.3 1.8-.9 1.9-3.8.5-5.1-1-1-2-1.3-3-.3-.4.4-1 1.4-1.5 1.6h-.2c-.2.5.2 2 .4 2.5.3.8 1 2.4 2.2 1.9.2-.1.3-.3.5 0-.3-.1-.2 0-.5.1l-.2.1c.3 1.3.1 2.9-1.3 3.8.6-.4 1.4-1.7.9-3.7-.7 0-1.3-.8-1.7-1.4l-.7-1.7a21 21 0 0 0-.7 1.8c-.3.9-1 1.3-2 .8.7.2 1.3.1 1.5-1 .1-.5.5-1.2.8-1.9-1 1-2.6.9-3.3-.3.8.8 2.6 1.2 3.5-.6l.1-.7c.3-.4.3-.1.6-.4l1.1-1.4.8-.6c.5-.6 1-1 1.4-1.7 0-.6.3-1.1.5-1.6v-1.7c-.4-1.4-2.6-1.2-3.6-.7v.2h-.4c-1 .6-1.8 2.3-2.2 3.3v.4c.2 1.1 1.2 2.7 1.8 3.7l.1.2-.2-.2c-.8-.8-2-2.7-2.2-3.8l.2-1c.3-.7 0-1.4-.8-1.8h-.6l-1.8.2c-.4.1-.4 0-.5.5l-.6 1.3c-1.2 2.6 1.3 4.6 3.6 5.1l1 .2c-.8.3-2.2-.2-3-.6-1.1-.6-2-1.5-2.3-2.6l-.6-.2L0 38v7.8c1.1 1.2 3.8 0 5-.3l1-.2-1.5.7c-1.4.6-3.3 1.3-4.5.6v3c1-.3 1.8-.7 2.5-.8l1-.5 1-1.3 1-1.2c-.8 1-2 4.2-2.7 5.4V51c0-.6.5-1.7.7-2.3l-.5-.1h.2c-1.6 2 0 11.7 5 8.8.7-.3 1.4-.3 1.6-.5 3.4 2.6 3.6 1.9 6.5-.9.5-.5.9-1.1 1.1-1.8V54c.4-2.4-1.5-4.4-2-5.8 1.9 1.5 2.4 3.2 2.4 4.4v.4c.2.8 1 2.6 2.3 2.2.4 0 2.1-.5 2.8-.9 0-.8-1-1.9-1.8-2.4a8 8 0 0 1 2.8 2.5 5 5 0 0 0 1.4.6c-.2-1.6-.7-2.5-2-3.3 1.7.8 1.7 1.4 2.5 3 .2-.2.4-.5 1.2-.5h.9c-.1-1.4-1.5-2.6-2.7-3 1.2 0 3 1.5 3.3 2.8 1-.4 1.4-1 1.7-1.8a6 6 0 0 0-3.6-2.7c1.2.1 2.7.8 3.8 2v.1l.5-2.5v-1l1.8 3.4c1 2 1 2.7 1.6 3.8-.6.9-1.9 2.4-2.8 4.2.2 0 .1 0 0 0h.2c.7.4 1 .2 1 .9.1.2-1 2.6-1.5 3.3 1.4-.9 3.8-2 4.4-4.3 0-1.5-1-3-1.2-4l.2.4c.4.3 3 1.4 5.4.6.7-1.8 1.7-3.6 3.5-4.1l-.6-.5c-2.8 1-4.7 3.1-5.4 4a10 10 0 0 1 5-4.4l-.1-.2c-3.6.6-6 3.3-6.9 4.3 1-1.7 3.3-4.3 6.7-4.7l-.3-.8a10 10 0 0 0-5.4 2.8 8 8 0 0 1 5.3-3.1v-1.2c-2.4.1-4.3 1.3-5 1.9 1-1 2.8-2.2 5-2.3l.3-1.2h-1.2l1.2-.2.2-.5c0-.2 0-.3.2-.4-1.3-.2-2.3-.1-3 0 .8-.3 2-.4 3.1-.3.4-.7 1-1.3 1.8-1.8a11 11 0 0 0-4-.3c1-.3 2.7-.5 4.5 0l1.6-.7c-2-.7-4-.6-4.8-.5 1.2-.4 3.5-.6 5.4.4l.7-.2c-1.3-1-4.7-1.1-6.4-.8 2.2-.8 5-.7 6.9.7a12 12 0 0 1 2-.1h-.2c-2.8-2.3-6.3-1.9-7.5-1.6 1.7-.7 5.4-1 7.8 1.6.8 0 1.6.1 2.2.3-2.4-.2-8.7-.8-9.1 5.3-.3 3.4 3.2 5 5.9 5.5a7.2 7.2 0 0 1-3-3.5c-.4-1.3 1.7-4.4 2.4-4.9 1.4-.9 2.4-1.7 4-.7-1-.2-1.8-1.7-5 4-1.2 2-.6 2.5.7 4 .3.3.8 1.1 1 1.1h-2.4C43.5 58 48.5 65.7 50.2 69c1.1 1.4 3.6 4.3 4.4 4.5.6.2 4 1.3 4.5 1.3.8-.1 2-1.1 2.9-2.9 1.1.5 3.3 1 4.2.6l1.1-.7h.1v-.1h.1v-.1l.1-.1c.5-.5.7-1 .4-1.5l.6-.6v-.1h.1V69h.1l.3-.6c1 1 3.7 2 3.3.3 1.5 0 3.6-.8 3.7-2.6 2 .7 5.3-3.3 5.3-5.7 3.8-1 3.1-7.5 1.5-10.6 2 0 1.2-1.7 0-3l-.1-.1-.1-.1-.1-.1h-.1v-.1h-.1v-.1h-.1v-.1h-.1V46H82V46H82v-.1h-.2V45h-.1v-.2c-.4-.7-1.1-1-2-1.4h-.1v-.1h-.2v-.1h-.1l-.5-.4-2.4-2.5-3-1-.2.1.4-.3c2.4-2-.5-5.3-3.5-5.9-2.5-.5-5 .4-5.5 1.3-1.1-5.2-9 .8-10 5.2.3-3.3 7-11.2 10.5-6.8.7 0 1.3-.2 2-.3.6-.8 1.2-2 1-3.4.4 1.4 0 2.5-.8 3.4.9-.2 1.8-.2 3 .2.3 0 .5.2.8.3.7-.6 1.5-1.4 1.8-2.6a3.6 3.6 0 0 1-1.6 2.7l1 .4c1-.4 2.6-1.3 3-3.2-.1 2-1.6 3-2.9 3.3l1.1.8c1.1-.4 2.7-1.3 3.3-3.3-.3 2.1-1.9 3-3.2 3.4 1.6 1.4 1.8 3 .8 4 .8-.2 1.5 0 2.6.5.8.6 1.3 2.5 1.7 3.4l.2.3c.4 0 1-.1.8-2 1 0 4.1-3.4 1.3-8.6-3.3-5.9-9.9-9.4-13.4-4.2l-2.2-.5H64.5c-.8-.2-2.4.6-3 1-1 .7-1.3 1.5-2.9 2a6.6 6.6 0 0 0-3.7 3c-.4.9-1.9 4.7-1.7 5.6.2.8.1 1.5 0 2.3-.2-.2-.3-.8-.5-1.6-.7-2-2.3-4.8-8.2-4.8h.6c-1.5 0-2.3-.5-3.8.1a23 23 0 0 0-6.6 4.5c.7.6 2.6 2.6 3 3.3-1.4.8-2.8 1-5.9-.3l-1.5 2c.2-2.3-.6-5.2-2.6-4.2h-.2v.1h-.1v-.4h.1V39.8h.1v-.2h.1v-.2l.1-.1v-.1c.5-1 1-2.3 1.4-3.6-2-1-1.7-2.9-1.4-4.8-.6-.6-1.1-1.2-1.7-1.6l-.1-.1H26l-.1-.1-.3-.2c-.9-.4-1.9-.4-3.2.4l-1.1 1.1-4.3 1.4c1.2-2.7 2.7-6.1 2.5-9-1.2 2.6-3.8 6.3-4.9 6 2-.7 3.7-4.9 4.4-6.6-1.3-1-5.5-2.3-7.3-2.8a13.6 13.6 0 0 0-2 8c-.9-2 .4-6 1.4-8.2h-.3c-2 1-.4.7-3 1-.7 0-1.2.3-1.7.6v.1H6l-.1.1h-.1v.1h-.1v.1h-.1v.1l-.1.1-.1.1-.1.1v.1h-.1v.1L5 22v.1H5v.1c-.6.9-.8 1.8-.7 2.7L4 25.9c-.5 2.5 1.6 4.8.7 7 .2-2.5-2-5.2-.8-7-.6-1.6-.7-2.4-2-2.3l-1.8.2zm0 9.4v1.2c.5.8 1.2 1.3 1.8 1.6l.2-.6a20 20 0 0 1-2-2.2zm0 1.5v2.8l.3-.1c.3 0 1-.3 1.2-.2l.3.1v-.6a8.6 8.6 0 0 1-1.8-2zm0 27.8v3.7c1.3.1 2.5.4 3.1.9L6 69.4l-1.2-3.8c-.1-.4-.3-.8-.6-1.1l-.3-.3H4c.4.2.7.6.9 1l2.3 5.4L8.5 72v.1c3-3.8-3.3-8.4-6-11 .4.4.1 3 .5 3.6-.7-.4-1.7-1.4-3-2.2zM0 67v7c2.7.6 5.8 1.1 8-1.3-.8-.3-2.3-1-2.9-.9-1.3.2-2.4.9-4 0 2.1.4 2-.2 4-.5a4 4 0 0 1 2 .4 20 20 0 0 0-4.7-4.1C1.8 67 1 67 0 66.9zm0 15.4V88l.5 2c.3-6.8 5.5-3.4 8-12.6a7.4 7.4 0 0 0-5.7 2.8c-.7.8-2 2.5-1.9 3.7v.3-1A9.4 9.4 0 0 1 4.6 78c1-.6 2.3-1.2 3.5-1.4h-.3C3 75 .7 78.3 0 82.2zm36.8-3c.7.8 1.6 1.6 1.7 2.3-.5 0-1 2.4 1.7 2.9-2-.4-4 3.3-3.8 3.8.3 1 2.1.6 3.6-.3h.1v-.1h.1v-.1h.2l.7-.7-.1.4-.5 1V88.9h-.1V89.8h.1c.3.4.8.6 2 .7a5 5 0 0 0 3.4-1.7c1.1-1.3 1.1-2.9.5-3.5l.1.4c-.6-1.6-2.2-1.6-3.2-2-.5 0-1 0-1.4-.3 2.4.4 3.6-3 2.1-4 .4 0 1.6 1.2.8 2.9-.2.6-.6 1-1 1.2 1 .1 2.2 1 2.6 1.7 2.3.6 4.2-2.8 4-5 0-1.5-2.2-2.8-3.6-2.8a4 4 0 0 0 2.4-1.8c.4-.7.5-1.7.5-2.2 0-1.3-1.8-1.5-2.7.5-2.3-2-3.9 1.8-4.6 2.6-2-.8-3.3-.8-4.2-.4H38l-.1.1-.2.1-.2.1v.1h-.1v.1h-.1v.1l-.2.1v.2H37v.1l-.1.1v.1l-.1.1v.2h-.1V77.9l-.1.1V79l.2.4zM32 42.6c-1.7-1-2.7-2.5-2.3-3.7.6.1 1.1.4 1.7.8.3.2.5.3.9.3l-.6-.4c-.7-.6-1.1-.9-1.7-1 1.8-1.4 3.3-.4 2 4zM20.1 66.3h-.8c-1.2.3-2 1-.8 2l1.8 1.3c.5.5.9 1 1.1 1.6.2.3.5 1.2 1 1.1.3 0 .6-.3.6-.7v-.8l.2.8.4.5c.4.6.6.7 1.2.3 1-.5 1.3-.9 2.4-.7.7 0 1-.2 1-1 0-.5-.2-.8-.6-1.2.3 0 .4.1.6.4.8.8.6 2.4-.9 2.4h-.9L25 73c-1 .4-1.4 0-1.8-1l-.4.5c-1 .8-1.5-.5-2-1.3-.5-1-1.9-1.7-2.7-2.5-1-1-1-2.2.6-2.5h.8c-.6-.3-1-1-1.2-1.5-1-1.6 1.5-2.5 2.7-2.3.3 0 .2 0 .5.2-.6 0-.9 0-1.4.3-.5.2-1.1.5-1.3 1-.2.3 0 .5 0 .7.2.5.4 1 .9 1.4l.2.1.2.2zM27.5 40a4.2 4.2 0 0 1-6.3.3c1.5.8 4 1.5 6.3-.3zM44.9 4.4c-.5.6-1.4 1-2.3.8-1.6-.4-2-1.4-1.8-2.7-.2 1.3 1 2.4 1.8 2.5.7.1 1.3 0 2.3-.6zM14 34.7v.2c-.2.9-.5 1.5-1 2.1l.1 1c-.1 0-.2 0-.2-.3l-.1-.4-.7.7c.9-.1 1.7.4 2.5 1.1.4.5.7 1 .9 1.7h.3c.5.3.4.5 1 .5.9-.1 1.4-.3 2-1 .7-.5 1.6-2 1.2-2.9-.3-.4-.4-.8-.6-1.3l-.4-1.5c-.3-.4-1.3-1-1.7-1.1-1.3-.5-2.5.2-3.3 1.2zM13 50.3c-.4 1.3-.5 2.8.4 4-1.3-.8-1.2-2.2-.8-3.4h-.2c-.4.4-1.1.4-1.7.5a5.5 5.5 0 0 0-.6 3.1c-.2-.1 0-2.1 0-3-1 .2-1.8.5-2.8.3-2.3-.6-2.5-4-1.2-5.5l.6-.4c-.4.6-.6.8-.8 1.5-.5 1.8.2 4.2 2.5 3.8l1.2-.3c.7-.2 1.2-.2 1.9-.2.6 0 .8-.2 1.1-.8l1.3-2.6c.1-.5 0-1.2-.2-1.7h.2l.3.9-.1 1.3-1.1 2.5zm28 32.5c1.1-.5 3.4-4.7 1.6-6.5 1.9 1 1.5 5.6-1.6 6.5zM19.7 75l-.5.2c0 1.7 2.2 3.6 2.6 5.4-.2-2-2.5-3.7-2.1-5.6zm4.3-7.6s-1 .3-1.1-.1c0-.2 0-.6 1.1-.4-1-.2-.6-.7-.2-.9.1 0 .4 0 .7.4 0 0 .2-.5.5-.6.2 0 .6.2.7.8.1-.6.9-.3 1 0 .1.1 0 .6-.6.6.8.5.6 1 .4 1.1-.4.3-1-.1-1-.8 0 .4-.2.6-.3.6l-.7-.4c0 .4-.3.7-.6.5-.3-.1-.4-.4.1-.8zm5.7-3.5c-.3-.6-.1-1.4-1-1.8-.3-.2-1.3-.5-1.7-.4-.9.1-1.6 1.5-2.4.9-.6-.5-.4-1.8-1.8-1l-1.1.9h-.2c.4-.7 1.3-1.5 2-1.6 1 0 1.1 1 1.5 1.2l.4-.3c.7-.5 1.3-1 2.3-.7.6.2 1.4.5 1.7 1 .3.4.4 1.3.3 1.8zm0 6c0-.2.3-.3.5-.4.3-.2 1-.6 1-1l.2-1.4c0-.5.2-.9 0-1.5-.1-.6-.6-1-1.1-1.4-.2 0 0 0-.2-.2l.4.1c1.4.5 1.8 1.8 1.5 3.1l-.2 1.5c-.2.5-1 .8-1.5 1l-.7.2zm46.5-23.2c.8.4 3.3-1.3 4.8-1.2.3 1 1.3 3.2 1.8 4.1-1.8-1-1.5-3.5-1.8-3.8-1.9.7-3.7 1.4-4.8 1zm-6 .2c1.1-.4 6.3-2.5 9-3.8-2.2 1.9-3.8 2.7-9 3.8zm9.1 12c.6-1.6-.2-3-1.8-3.7 1 0 .9-3.2-.9-4l.5.2-.3-.3s-1.6-1.2-2-.6c0 .2-1.6.6-2.1 1 2.3 0 3.2 4.1.2 5.3-.2.5-.2 2-2.1 2.1 1.5-.3 1.7-1.9 1.5-2.4 2.6-.2 2.2-4.5 0-4.5-.8 1.3-3.8 3-4 3.6.4 2 .7 2-.1 3.7.9.5 1.8 1.5 3.6.6-.8 1.3-2.5 1-3.8.6 0 3.3 4.1 2.3 4.7 1.5-1 1.5-3.2 1.3-4.6.8 0 4.3 3.8 2.5 4.4 1.9-.4.7-2.1 1.4-2.9 1.4 0 .4.7 1.2 1 1.4-2.8-.7-2.9-4.8-3.3-7.1-.1-.9-.8-1.4-1-1.5.8-.9 1.6-2.8.7-3.6 2-1 1.8 0 3.6-2.6.6-.9 3.3-3.2 4.6-3.2 2.2 0 2.5.4 4.2 1.6 2.1 1.5 3.3 1.2 3.1 4.5 0 .9-.4 3.6-1.9 2.9 1.2-.4 1-2 1.5-3.2.6-1.4-1.5-3.2-2.7-3.7.6 1.1.4.8.6 1.8-1-1.4-1.7-1.4-2.4-1.7 1 .7 1.3 2.3.8 3.4 1.1 1.1 2 2.6 1 3.9zm-5 1.7c2.3.3 2.5-3 1.8-3.6-.1 1-1.2 1.4-1.4 1.6.1.6.4.8-.3 2zm1.8-3.8c.8.2 1 1.5.8 2.2-.4 1.3-1.8 2-2.6 1.7l-.2.3c0 .2-.7.6-1 .6 1-.7.9-.5 1.2-1.5.3-1-.5-1.8-.7-2.4 1.3.5 2.7-1.2 2.4-1.5l.1.6zm-3.7 10.5c1.8 1.3 4.7-2.3 4.4-3.4 2.2.3 5.6-3 3.6-4.9 1.6 2.6-2.6 4.6-4.2 4.2.3 1.5-1.4 4.2-3.8 4zm-8.3-22.6c-1 2.1-2.4 3-3.4 5l-.1.1c.5-.7 3.1-1.9 4-3.6l.5-.4c2.2-.7 2.2-.6 4.3-1.6 1-.5 4.8-3.1 7.4-2.3-3.3-1.4-5.2 1-6.4 1.4-2.4 1-1.7 1.2-4.6 1.8-1 .2-1.2-.4-1.7-.4zm5.6 4.3C72 47 79 48 81 50.2l.2.3C79 46.9 69.8 46.9 69.7 49zM58 56.2c-2.1-3-5.6-8.3-4-11.6-.3 4.4 2.9 8.7 4 11.6zm-8.3-2.6c-1.3 0-2.4 1.6-2.3 3 .2 1.1 1.7 6.9 3.4 7.9a21.2 21.2 0 0 1-2.9-8c-.2-1.7.9-1.7 1.8-2.9zM65 70.7c1-1.2.6-3.3-.2-4.1-.2-.3-5.6-7-5-7.6.7 1.8 1.9 2.6 3 3.8 1.3 1.5 2 2.4 2.7 4.2.5 1.4.8 2.6-.5 3.7zM52.6 44.5c-1.6 3.6 2 9.2 3.4 11.5.4.8 1.4 2.8 2.1 3.2 0 1.4 4.2 8 5 9l1.9 2.5a37.2 37.2 0 0 1-7.6-12.2A27.3 27.3 0 0 1 51.9 48c-1.1 2.9-.9 9.1.2 10.4.8 1 1.2 2 1.3 3.1.3 1.8 2.3 4.5 4.7 6 1.6 1 3 1.6 4.9 1.5-2.4 1.3-6.8-2-9-5-1.6-2.4-.7-1.2-1.8-4.3-.8-2.2-1.4-2.4-1.2-5 0-1.8-.7-3.1-.4-4.9.4-2 .6-3.6 2-5.2zm19.4-5c-.5-.2-.8-1-2-1-.4 0-1.8-.4-2.4.2a31.7 31.7 0 0 1-5.5 2.5c-1.5.6-1.8-.3-3 1.1l-.5 1.2c-1 1 2 7 .5 10.4 1.2-3-2.2-6.4-1-10.9 1-3.3 6.5-2.1 9.5-4.7a4 4 0 0 1 1.7-.2c-1.4-.2-7-.7-7.8-.2-1.3.8-2.6 1.1-3.8 2.5-.6.7-3 2.4-2.5 3.3.2.5.2.5.9 1.4-1.7-1-2.6-2.4-.6-3.7 1-.6 1.9-2.3 3.1-3 1.8-1.2 6.8-1.8 10.8-.3 1 0 2.2.4 2.6 1.4zM35 66.2c1.6-.7 2.8-.9 4.4-.2l.7.4c-1.1-.6-3.6 2.2-5 1v-1.2zm0 1c.1 1.6-.1 3.8-2.2 3.6-1.6-.2-2.2 0-3.6-.2a9 9 0 0 1 1.6 2.7v.5c1-.5 4.5.3 5.4.9l2 1.3h-.6v.1H36.5l-.1-.1h-.2v-.1H36v-.1H36v.1h.1v.1h.1v.1l.1.1.1.1v.1h.1v.1h.1v.2h.1v.4h.1v.2h-.2v.1H36.2v.1H34.8l.1.1h.1v.1h.1v.1h.1l.1.1v.1h.1v.1h.1v.1h.1v.1h.1v.1h.1v.1h.1v.1h.1v.1h.1v.1h.1v.1h.1v.1h.1v.1h.1v.1h.1l.1.1c-3.3.2-5.4-3.2-6.1-4.7v-.3c-.3 1.9-2.1 1-3.1 1.8-2 2.4-4 1.1-3.9 1.2-1.3-.8-2.2-2.5-2.1-3.8l-.4.5c-.1 1.8 2.2 2.6 2.4 4a26 26 0 0 1-1.6 5.4c-.7-3.9-5.2-4.2-3.8-8.2l-.8-.4c-.4-.3-.8-1.6-1.8-2.5-2-1.7-2.5-2.3-1.9-3.6.5-1.1 2.2-2.8 3.7-2.1-.9-1.3-3-3.1-2.4-5 .9-2.6 3.1-4 5.8-2.8.9.4 1.8 1 2.3 2.3h.1c0-1.2.2-1.3.8-3 .6-1.5 2.5-1.3 3.7-.8 1.2.5 3.2 2.2 3.5 2.4l.2.1c1.3 1.1.2 2.8-.3 3.8v.1l.5-.1c1.2-.2 3.2-.2 3 .9-.1 1 0 1.3.2 1.9l.1.7zm6 20.3c1.3-2.8-.4-2.4-.1-4.4 1.2 1.5 1.1 3.4 0 4.4zm6-13.7v.4c.1.7 0 1.5-.4 2-.4.9-1.2 1.3-2 1.4h-.9c.3-.2.7-.2 1-.3.8-.2 1.3-.7 1.6-1.4.4-.5.5-1.1.6-1.7l.1-.4zm22.1-5.4c-.8.6-3.4-4.2-3.6-5.2a12 12 0 0 0-3.9-6.7c1.6-.4 2.7 0 3.3-1.4-.5 0 .4 1.4-5.3.5 1.3.5 5.7-3.9 6.4-4.3 1.5-.9 3-2.8 3.8-4.4l1-2.4c-1.1 1.3-1.2 2.8-3.3 4.7-1 1-1.6 2-3 2.8-1.5 1-3.1 2.3-4.9 3.1l-1.4.5c1 .4 2.2.4 3.1 1.2 2 1.8 3.4 5 4 7.3.2 1 3 5 3.8 4.3zM24 54.4l-.5-.1.5.2zm4.3-23.2c.2-1.5.5-3.1-.2-4.4 2.6 1.1 4.2 6.4 2.6 8.7 0-.4 0-.8-.2-1.3-.2-.8-.4-1.4-.4-2.2v-.5l-.1.2c-.2.8 0 1.7.2 2.4.1.6.2 1.2 0 1.8l-.8-.4c-1.5-1-1.4-2.6-1.1-4.3zm27.1 1.3zM45.9 35c-.7-6 0-8.1 2-11 2.2-2.8 11-9 14.6-5.2.7.7 1.2 1.6 2 2.5 2.4 2.6 1.5 4.5.2 6v.1l-.1.1c-1.8-1.1-3 .5-3.6.8-1.7.6-1.2 0-2.2.7.3-1.4.3-2.7.2-3.6 0 .8-.1 2.3-.7 3.9l-.3.2-1.2 1c.8-2 1-4 .7-5.3 0 .9-.1 2.8-1 4.7.2-2-.5-3.9-1-5 .3 1.1 1.2 4 .2 7-.1-1.5-.6-2.9-1.1-3.8.2.8.7 2.5.7 4.4l-.2.2-.6.9c.2-2.3-.9-4.4-1.7-5.5.4.9 1.5 3 1.3 5.5a8.4 8.4 0 0 0-2.6-4.7 10 10 0 0 1 2.4 6c-.3.5-.5 1-.6 1.6a11 11 0 0 0-2.7-6.6 18 18 0 0 1 2.1 6.8c-.8-3.1-3.6-6-5.1-6.7 1 .7 4.3 4.8 5.1 8.2A7 7 0 0 0 46 35zm3.8 33.2c-1 3-2.7 3.6-4.5 3.2a3 3 0 0 1-2.3-3.5c1.3-1.9 3.6-3.4 4.1-4.6.1 1.1 1 3 2.7 4.9zm-6.6-1c-2.1-.5-2.3-.8-2.8-1.5-1.8-2.4-.5-7.5 0-9.4 1-1.5 2.1-3.1 4-3.6.7.3 1.5.5 2.6.6-3.2 3-.1 9-.2 9.7-1 1.6-1.3 2.2-3.6 4.2zm-7.4-7.8c1-.7 2.3-1.2 4-1.3-1.8 4.2-3.7 4.2-6.8 5 1.3-.8 2.6-2 2.8-3.7zm-5 14.9zm5.3 30c1.5-.3 3-1.4 2.6-3.6l-.5 1.3a2 2 0 0 1-.6.7l.3-.5.6-1.5c-1.4.3-2.8 1.6-2.4 3.6zm-1.6-3.8c1.4.5 3.3.3 4-1.7-.8.8-1.8 1.1-3 1.3.7-.3 2-.4 3-1.5-1.4-.5-3.3 0-4 2zm.5-6.7c1.3.7 3 .8 4.1-.9-.4.2-.9.4-1.4.4h-.8l.3-.1c.8-.1 1.5-.3 2-.7-1.3-.7-3.2-.6-4.2 1.3zM48 97c-.4-1.4-1.7-2.8-3.7-2.1 1 .4 1.2 1.3 2.1 1.7-1-.1-1-1.2-2.3-1.5.6 1.4 2 2.6 4 1.9zm-5.1 6.2c1.2-.8 2.2-2.3 1.2-4.1.2.7.5 1-.6 2.5.8-1.5.5-2.1.3-2.7-1.2.8-2 2.5-.9 4.3zm3.8 1.9c.5-1.3.6-3-1.1-4l.4 2.3.1.7-.3-.9c0-.8-.2-1.4-.5-2.2l-.2-.1c-.6 1.4-.4 3.3 1.6 4.2zM16 90C16 86.3 9 82.5 5.4 87.5c4.7.5 6.4 5 10.6 2.8l.1-.4zm55.2-72.7c1.3-7.5-6.9-8-11.3-5.2 2.6 2 6.3 8.7 10.9 5.7l-.5-1c-.4-.3-.9-.3-1.5-.2l-.9.2h-.1c.6-.4 1.2-.7 2-.6-.7-1.7-2.6-1.3-4-1.1h-.4l.3-.2c1-.3 1.6-.5 2.4-.4-1.4-1-3.8-2.3-5.6-2.2h-.2l.6-.1c1.6 0 4 1 5.5 2l-.7-1.2c-.2-.5-.5-1.2-.3-1.8v-.1.3l.5 1.4c.4.6 1 1.3 1.3 2l.2.2.6.7c.3-.4.4-.9.5-1.3.1.2 0 .6 0 .8 0 .3-.2.5-.3.8l.2.3.8 1zm11 24.7c5.5-.8 7.2-6.5 5-8.1 0 3.7-4.3 1.3-4.9 5.8v1.6l1.9-2c-.5.9-1.5 2-2 2.7zM88 53c1.8-2.1 3.2-3.6.6-6-1.6-1.4-2.8-.2-3.7.2 1.1.4 2.2.8 3.6 2.8-1.8-1.6-3-2-3.8-2.3 1.2.6 2 2 2.6 3 .4.5 1 1.6.7 2.3zM73.1 20.2c3 7.8 9 3.9 10.4 3.3-.3-3.2-5-9.5-10.1-3.8h.3a5.4 5.4 0 0 1 1.6 0l.6-.3c.6-.4 1.5-.9 1.7-1.6v-.2.2c0 .6-.5 1.1-.9 1.5l-.7.5 2 .5h.1c.8 0 1.7-.6 2.3-1.3l.3-.3-.2.4c-.3.7-1 1.2-1.7 1.5l1.4.5c1 .5 2 1.1 2.7 2l.1.3-.2-.2a6.5 6.5 0 0 0-2.6-1.8L79 21c.4.6.5 1.2.7 2 0 .4 0 .5.2.8-.3 0-.4-.5-.5-.7-.2-1-.4-1.9-1.5-2.4l-1.2-.3c.5.5.5 1.3.4 2.4v.5l-.1-.6c0-1.4-.2-2.1-1.3-2.5H73zm2.2-5.8c10.4 0 7.4-11.3.6-14.3-1.6 3.4-8.8 9.6-1 14.1l.3-.7v-.1l.3-.6c-1.2-.7-3-2.3-3.3-3.6v-.3l.1.3a8 8 0 0 0 3.3 3.2l.8-2.7c0-.5-.4-1-1-1.7-.9-1-1.7-2.1-1.4-3.4l.1-.3V5c.1 1.6 1.3 2.5 2.3 3.6l.2.2c.3-2 .4-4.2.3-5.5l-.1-.6.2.8c.2 1.3.2 3.2 0 5.2.9-.7 2-1 2.6-1.9l.3-.9v.4c0 1.6-2 2-3 3l-.6 2.7c1.3-.7 2.5-1.1 3.4-2.5l.2-.3-.1.4c-.7 1.6-2.4 2.2-3.7 3l-.5 1.3-.3.6zM30 46.9l-.3-.2.4-.5.3 1 .1.2c-1.5.5-4.2 0-5-1.4.5.6 2.9 1.5 4.5.9zM11.2 11.2c-1.4-2.8-5-.7-6.3.8-1.4 1.7-1.5 2.9-1 4a5 5 0 0 1 1.7 2c2.5-1 .9-7.2 5.6-6.8zm-6.7 7.2c-1.4 0-2.2 1-3.2 1.8-.4-1.9 1-3 2.5-2.8l.7 1zM27 19.6c.2-1.6-.3-2.5-1-3.5-1.5-2-4-2.5-6.5-1.2 4.5 1.1 5.3 4.1 7 5.7 0-.8-.2-1.5-.5-2.1l-.1-.3.2.2c.4.4.6 1 .8 1.6l.1-.4zm.2 2.6c3 .2 4-.6 8-4-3.4-1.2-6-.5-7.8 2.6v.4a5 5 0 0 1 1-.7c.8-.5 1.6-.7 2.5-1a12 12 0 0 0 2-1.2l-.1.1c-.2.3-1.4 1.2-1.8 1.3l-2.3 1c-.8.5-1.3 1-1.5 1.5zm1-8.6c1.2-1.9.5-3.7-.9-5l-.9-.7c-1.3-1-3-1.5-3.9-1.3 2.7 4.5 3.1 4 4.8 5.4l.5 1.6-.1-.9.1-2.3v.3c.1.6 0 1.3.2 2l.1.9zm6.2 20.6c3 0 6.6-2.2 7-5.1 0-1.1-2.2-5.7-2.3-6.8C35.5 27.2 29 29 34 34.1A12 12 0 0 0 39 23.6c1.2 5.8-2 8.9-4.5 10.6zm33 41.2c0 2 1.6 6.5-.6 9.5-1.6 2.1-4.4 2-11 1.4 3.9-.8 2.1-12.6 11-11l-.4.8v.2l-.3.6a4 4 0 0 1-3.3 1.5h-.2v.1l.6.2c.7.1 1.5 0 2.1-.4a10.9 10.9 0 0 1-5 3H60l.5.1a7 7 0 0 0 4-1.5c-1 1.6-2.4 3-4.4 4l-.7.3h-.1v.1l.7-.2a11 11 0 0 0 5.7-5 10 10 0 0 1-1.2 4.8l-.2.4c.2-.1.2 0 .3-.3 1.4-1.4 1.7-4.3 1.9-6.3l.6-1.2.1-.3.3-.8zm7.8 1.7c7 .7 9.4 5.8 9.2 8.2C84.1 92 78 92 74.3 97.2c.2-1.5-.6-2.9-1.5-4-1.4-1.6-2-2.2-2.7-4.3-1.9-4.7 1.4-10.7 4.6-11.7l.4.7v.2c-.3 2-1.9 4.5-3.4 5.8l-.3.3.8-.4c1.4-1 2.8-3 3.4-4.8l.9 2.4c-.2 1.9-1.4 5-2.3 6.4-.3.6-.7 1-1.2 1.5l-.2.1c.5 0 1-.5 1.3-.9 1-1.1 2.2-3.3 2.7-5.2l.5 3.5a18 18 0 0 1-1.3 6.5l-.2.3.2-.1a17.2 17.2 0 0 0 1.8-6.7v-.2c.7 1.1 1.8 2.3 2.7 3l1 .6h.2l-.3-.3c-1-.8-3-3-3.7-4.4l-.5-3.6v-.2-.3l1.7 1.4a13 13 0 0 1 4 4.4l.1.3v-.3c-.4-1.1-1.3-2.4-2-3.3-1.1-1.2-2-1.8-3.3-2.8l-1-1a20.7 20.7 0 0 0-1.4-3zm1.5-3.3c1 2.2 5.3 2.9 8.8 1 2.6-1.4 5-3.9 4-9l.2-1.7c-3.3 1.5-5.7-.3-8.5 1.1-2 1-4.5 4-4.5 8.2l1-.3h.1l1.1-.4.5-.1.4-.3c2.5-2 2-4.7 2-5.1l.2.5c.2 1.8-.2 3.1-1.3 4.3l1.3-.8 1.2-.8c.7-.8 1.5-2 1.5-2.8v-.3-.1l.1.5c0 .6-.2 1.3-.7 2 .8-.6 1.4-1.2 2-2.2l1.1-1.9a17 17 0 0 1-1 2c-.6 1.3-1.6 2.1-2.6 3a8 8 0 0 1-.6.6l2.2-.8c1-.4 2.5-1.2 3-2.3l.1-.1c-.1 1.4-2.6 2.6-3.7 3l-2.9 1.2-1.2.4-1 .3-.7.3c1.6.6 3.4.5 5-.2l-.3.3c-1.4.8-3.9.8-5.3.1h-.2l-.6.3a4 4 0 0 1-.7.1z"/></svg>
