<svg xmlns="http://www.w3.org/2000/svg" width="1004" height="250" fill-rule="evenodd" clip-rule="evenodd" viewBox="0 0 1002.7 250"><g fill="#075DB3"><path d="M979.6 112.7c0-3.3-1.3-4.9-3.8-4.9-7.5 0-17.5 8.7-30 26.1-12.7 17.4-19 30.4-19 39 0 3.2 1.5 4.8 4.4 4.8 4.7 0 14.2-9 28.5-27 6.6-8.3 11.5-15.8 14.8-22.5 3.4-6.7 5-11.9 5-15.5zm23-9a1456.9 1456.9 0 0 0-16 35.9c-8.1 18.7-12.2 30-12.2 34 0 2.8 1 4.1 3.3 4.1 4.1 0 11-5.6 20.6-16.8.8-.2 1.5 0 2.4.8.8.7 1 1.5.9 2.4-9.8 14-20 21-30.5 21-8.5 0-12.7-4.3-12.7-12.8 0-3 1.4-8.3 4.3-16-14.9 18.8-26.7 28.2-35.6 28.2-9.3 0-13.9-5.7-13.9-17.1 0-16 7.9-31.2 23.7-45.7 15.2-14 30.9-21 47-21 8.2 0 14 .6 17.7 1.7.7.3 1 .8 1 1.3zm-113.3.9c2-1.3 4.3-2.2 6.8-2.8 2.5-.5 4.8-.8 6.8-.8s3 1 3 3c-.2 0-1 1.6-2.6 4.8a9818 9818 0 0 0-13.3 28.1 993.4 993.4 0 0 0-13 30.3 30.6 30.6 0 0 0-2.1 7.5c0 2.7 1.6 4.1 4.9 4.1 6.5 0 13.1-5.8 19.8-17.4l3-.6c1.5 0 2.2.8 2.2 2.2a48.5 48.5 0 0 1-13 15.7 25.1 25.1 0 0 1-15 6.4c-5.3 0-9-1-10.9-3-2-2-3-5.1-3-9.3 0-4 1-9 2.7-15 1.3-4.3 2.7-8.7 4.4-13.3h-.6l-11.7.3c-3 0-6 .1-8.7.3l-1 2.1-14.5 32.7a8.9 8.9 0 0 1-5.4 3.7 35 35 0 0 1-7 .6c-2.3 0-3.3-1-3.3-3.2 0-.6 5-11.4 15-32.4 8.6-18.7 13-29.7 13-33.2 0-3.4-1.3-5.1-3.8-5.1-.6 0-4.1 1-10.6 3-1.5-.6-2.2-1.5-2.2-2.8 0-1.6 1-3 2.8-4a45.6 45.6 0 0 1 19.7-5.2c2.6 0 5 .8 7 2.6 2 1.7 3.1 4.1 3.1 7.2 0 4.9-3.4 14.6-10.3 29h7.6c3.4.3 7.6.3 12.5.3l.5-1a298 298 0 0 1 17.2-34.8zm-77.8-.3c-20.1 38-30.2 61.4-30.2 70.1 0 3 1 4.4 2.7 4.4 2.8 0 6.6-2.7 11.6-8 5-5.4 8.2-9.8 9.7-13.2 2.7-1.1 4.5-.7 5.4 1-2 4.6-5.7 9.7-11.2 15.3-7 7.4-14 11.1-20.6 11.1-2.7 0-5.2-1-7.4-3.2a12 12 0 0 1-4-9.5c0-4 1.5-10.2 4.6-18.5-16 20.6-28 31-36.2 31-8.1 0-12.2-4-12.2-12 0-4.5 3.7-14.8 11.1-30.7 4.6-10 9.2-19.9 13.9-29.7.7-2 0-3-2.2-3-4 0-6-1.3-6-4 0-2.8 1.7-4 5-3.8 7.5.5 14.9.1 22-1.1 1.4-.4 2.5-.1 3.2.8.7.7.7 1.8 0 3.3l-16.3 32.9c-10.2 20.8-15.2 32.8-15.2 35.9 0 1.6.9 2.4 2.7 2.4 4.5 0 17.9-15 40-44.9l12.5-25.3c1.4-3 3-4.6 4.9-4.6.7 0 2.2 0 4.5-.3a72 72 0 0 1 4.4-.2c3.5 0 4.6 1.2 3.3 3.8zm-106.9 7.9c0-3.1-.8-4.7-2.4-4.7-2.7 0-8.8 6.3-18.2 18.8-8.4 11.2-16 22.8-23.1 34.5l-6.6 15c2.6 2.4 5.5 3.5 8.7 3.5 8.7 0 18-9 28-27.2 9.1-16.4 13.6-29.8 13.6-40zm15.3 2.1c0 12.6-5.7 27.1-16.9 43.8-12.1 18-24 27-35.6 27-6.2 0-11.3-1.7-15.2-5A2012 2012 0 0 1 623 240c-.6 1-2 2.2-4.1 3.4a12.7 12.7 0 0 1-6 1.8c-3 0-4.4-1.1-4.4-3.3 0-.7.2-1.6.6-2.7l52.5-120.8c.5-1.2.8-2.4.8-3.5 0-3-1.1-4.4-3.3-4.4-.7 0-2.9 1.6-6.5 4.7-2.7 1-4.5 0-5.2-3 5.3-7.6 12-11.4 20.1-11.4 6.4 0 9.6 3.8 9.6 11.4a45 45 0 0 1-5.2 20.1c13.6-21 25-31.5 34-31.5 9.2 0 13.9 4.5 13.9 13.6zm-98 7.7c0-6.2-1.2-9.3-3.7-9.3-3.3 0-5 5-5 15.2 0 6.6 1.2 11.3 3.6 14.2 3.4-8 5.2-14.7 5.2-20.1zm14 24.4c-3.1 3.1-6.6 4.7-10.4 4.7l-2.4-.3a81 81 0 0 1-20.2 24.3c-8.1 6.7-15.7 10-22.5 10-14 0-21-7-21-21 0-15 6-29.5 18-43.4 12-13.8 25.3-20.8 40.2-20.8 2.5 0 3.8.6 3.8 1.7 0 1.8-1.3 2.7-3.8 2.7-10.1 0-20.4 8.9-30.7 26.6-9.4 16.3-14.2 30-14.2 41.1 0 5.8 2.8 8.7 8.2 8.7 4.9 0 10.6-3.4 17-10 6.4-6.8 12-14.7 16.5-23.7a21.5 21.5 0 0 1-8.8-18.2c0-7 1.6-12.3 4.7-16 2.7-3.4 5.7-5 9-5 7.7 0 11.6 5.2 11.6 15.5a53 53 0 0 1-5.7 22.9l2.2.2c2.2 0 4.4-1 6.8-3 1.8.4 2.4 1.4 1.6 3zm-124.6-28.3a1006.8 1006.8 0 0 1-23.4 56.6c.4 1 .8 1.7 1.4 2.5 1 1 2.5 1.9 4.3 2.4 10.2 0 20.4-8.9 30.7-26.6 9.5-16.2 14.2-29.9 14.2-41.1 0-5.8-2.7-8.7-8.2-8.7-5 0-10.7 3.4-16.8 10h-.3c-.6 1.7-1.2 3.3-2 5zm-19-14.4c-10.2 0-20.5 9-30.8 26.7-9.4 16.1-14.1 29.8-14.1 41 0 5.9 2.7 8.8 8.1 8.8 5.1 0 10.7-3.4 16.9-10.1v.3l25.8-59.9c-.9-3.6-2.9-5.8-6-6.8zm-7.7 77.6a3421.1 3421.1 0 0 1-28.3 59.8c-.5 1-1.9 2.2-4 3.4a12.7 12.7 0 0 1-6 1.7c-3 0-4.4-1-4.4-3.2l.6-2.7 25.3-59a29.8 29.8 0 0 1-12.8 3.2c-14 0-21-7-21-21a66 66 0 0 1 18-43.2c12-14 25.4-21 40.2-21 1.9.6 3.6 1.4 5.2 2.5 1.3.8 2.4 1.8 3.3 3.3l12.5-29.4a9 9 0 0 0 .8-3.5c0-3-1-4.4-3.3-4.4-.7 0-2.9 1.6-6.5 4.7l-1.9.5c-1.6 0-2.7-1.2-3.3-3.5 5.1-7.6 11.8-11.5 20.2-11.5 6.3 0 9.5 3.9 9.5 11.5 0 1-.8 4-2.3 8.7a318.5 318.5 0 0 1-9.1 24.4c4.7-2.5 9.2-3.8 13.6-3.8 14 0 20.9 7 20.9 21 0 15-6 29.4-18 43.2-12 14-25.3 21-40.2 21-1.8-.6-3.5-1.3-5.2-2.2-1-.7-2-1.6-2.7-2.5a18 18 0 0 1-1 2zm-69.9-69.1c0-3.1-.8-4.7-2.4-4.7-2.7 0-8.8 6.3-18.2 18.8A425 425 0 0 0 371 161l-6.6 15c2.6 2.3 5.5 3.4 8.7 3.4 8.7 0 18-9 28-27.2 9.1-16.4 13.6-29.8 13.6-40zm15.3 2.1c0 12.6-5.7 27.2-16.9 43.8-12.1 18-24 27-35.6 27-6.2 0-11.3-1.7-15.2-5-7.7 16.6-17.4 36.5-29.1 59.9-.6 1-2 2.2-4.1 3.4a12.7 12.7 0 0 1-6 1.8c-3 0-4.4-1.1-4.4-3.3 0-.7.2-1.6.6-2.7l52.5-120.8c.5-1.2.8-2.4.8-3.5 0-3-1.1-4.4-3.3-4.4-.7 0-2.9 1.6-6.5 4.7-2.7 1-4.4 0-5.2-3 5.3-7.6 12-11.4 20.2-11.4 6.3 0 9.5 3.8 9.5 11.4 0 6.5-1.7 13.2-5.2 20.1 13.6-21 25-31.5 34-31.5 9.2 0 13.9 4.5 13.9 13.6zm-111-1.6c0-3.2-1.3-4.9-3.8-4.9-7.4 0-17.4 8.7-30 26.1-12.6 17.4-19 30.4-19 39 0 3.2 1.5 4.8 4.4 4.8 4.7 0 14.2-9 28.6-27 6.5-8.3 11.4-15.8 14.8-22.5 3.3-6.7 5-11.9 5-15.5zm23.1-9c0 .6-.5 1.7-1.6 3.3-.4.6-5.2 11.4-14.4 32.6-8.2 18.7-12.3 30-12.3 34 0 2.8 1.1 4.1 3.3 4.1 4.2 0 11-5.6 20.7-16.8.7-.2 1.5 0 2.3.8.8.7 1.1 1.5 1 2.4-9.8 14-20 21-30.5 21-8.5 0-12.8-4.3-12.8-12.8 0-3 1.5-8.3 4.4-16-15 18.8-26.8 28.2-35.7 28.2-9.2 0-13.8-5.7-13.8-17.1 0-16 7.8-31.2 23.6-45.7 15.2-14 31-21 47-21 8.2 0 14.1.6 17.7 1.7.8.3 1.1.8 1.1 1.3z"/><path fill-rule="nonzero" d="M243 116c0 15-7.7 29.2-23 42.6-28.3 24.8-62 38-111 40-17.5 47.4-42.6 53-75.8 51-6.8-.4-10.2-1.5-10.1-4.3a329 329 0 0 1 10.2-31h10.9c-2 6-3 10.4-3 13.4-.1 5.5 4.4 7.7 13.5 8.3 21.2 1.5 32.8-21.8 40-37.6a165.2 165.2 0 0 1-60.6-14.9C11.4 172.5 0 157 0 137c0-30.7 15.8-54 47.5-70A196 196 0 0 1 136 48c7.8 0 15.4.4 23 1.1.9-2 1.7-3.5 2.3-4.4 9.2-13 21.4-24 36.4-32.8a75 75 0 0 1 38-12c6.9 0 10.2 1.4 10.2 4.3 0 1.4-3.3 11.7-10 31H231c2-6 3-10.4 3-13.3 0-5.5-4.5-8.3-13.6-8.3-19.8 0-35.9 11-48.4 33-1.1 2-6.8 12.6-10.4 19.9a97.1 97.1 0 0 1 56.3 10.9c16.8 9.1 25.1 22 25.1 38.5zM155.5 59c-10.2-.7-18.3-1.1-27-1.1-70.7 0-106 24.6-106 73.8 0 16.7 9.4 29.6 28.3 38.7a130 130 0 0 0 51.9 11.8l46.1-107.4c-22.7 1.1-39.6 7.2-53.2 18.4a68 68 0 0 0-24 49c-7.3-3.9-11-10.4-11-19.6 0-16.1 11.7-29.7 35-40.7 19-9 37-13.7 56.4-14.3l3.5-8.6zm4 17.4L116 181c41.9-1.6 71.8-12.1 96-31.9 13.2-10.7 19.7-22 19.7-33.8 0-13.2-7.1-23.4-21.4-30.7a105.8 105.8 0 0 0-50.6-8.3z"/></g></svg>
