<svg xmlns="http://www.w3.org/2000/svg" width="432" height="467" fill-rule="evenodd" clip-rule="evenodd" viewBox="0 0 176.9 191.1"><path fill="#D8D3D0" d="M19.3 78.3l-.1.3c-2.2-.5-5-1.6-9.3-3.8 3.6 2.8 6.5 4 9 4.6-8.6 4.7-15.5-6.6-18.9-9 4.7-.6 12.6.8 14 2 2.4 1.7 4.3 2.6 5.3 5.9zm89-78.3h2.3c.6 3.1-1.8 3.3-2.5 5 2.5-.7 5.9-1.2 7.6-1.4 2.3-.2 3.7.5 4.1 2 .3 1.2-3 2.5-5.4 3.2 1.8 1 6.6 3.4 5.5 4.8-1.1 1.6-7.2-1-8.7-1.7h-.1c-.9-.5-2.8-.7-5.2-3.2.2-1 2.7-1 3.5-1.4-1.4 0-2.4.1-3.6-.4.5-1 .8-1.6.2-2.2-.4.7-1 .6-1 1.3v.3c-.2 6.7-7.6 6.8-10.8 4.4l-.6-.6c-.1 1.4-.4 1.5-1.4 2.3 2.2-.5 2.6.1 2.8 0 0 .1-1.7 5.8-2 6.2.3-.2 2.8-5.5 3.4-6 1 .3.9 4 .9 4.8.4-1.4.3-4 .7-4l1.6-.6c.2.3 1.4 3 1.1 3.1.3-.8-.5-2-.2-3v-.2c.3-.1.9-.3 1-.2 1.3 1.2 2.8 4.4 4 5.4 0 0-2.6-4.3-2.3-6.2.9.5 2.5 1.5 3.4 1.7-1.4-.7-1.4-1-2.9-2.1 0-.2.4-.7.6-.7.6-.1 5.3 1 6.8 1.3 1 1.2 2.6 3 1.8 4-.7.8-2.9.5-4-.2l1.3 1.5-.5-.2.2.2.8.5c.9 1.2 1.2 2.4-.7 2.6.5 1 .7 2.6.2 3-1.8 1.1-6.5-2.9-9.5-7 .2 1 1.8 10.4.6 10.6-2.1.3-3.4-6.8-4-9.3-.8 1.9-2.7 5.8-3.7 5.2-1-.6-.9-2.3-.5-3.8-1.3 1.3-4.6 5-5.4 4.4-2.4-1.8.7-6 2-7.7-4.7 2.4-8.1 1.3-5.9-.8 2.6-2.5 9-4.5 9.7-5-.5-1.1.2-2.2 1.6-2 1-6 6.8-4.4 7.6-3.5.9-.5 2 0 2.3.8l.2-.7.6-1.8a6 6 0 0 1 2.4-2.7zm15.5 0h5.9c-2.2 2.2-4.1 3.3-6 2.3-.6-.3-.4-1.4.1-2.3zm8.3 0h4.2c-.9 2.7-1.5 4.6-4.2 6.3-1.8.4-.8-3.1 0-6.3zm5 0h8.6c1 2.3 1.6 4.5 2.2 5.7-.5 1.8-2.8-.3-5.4-4.9 1 2.4 1.4 6.9-.8 8.4-1.2-.2-1-2.1-1.4-6.2-2.1 2.2-2.9-1-3.2-3zm39.8 43.3v15.3l-4 4.7-.7-1.6c-.6-1.7-1.4-1.5-3-1.7a18 18 0 0 1-2.1-.3c-.7-.1-1.2 0-1.8.3a4 4 0 0 0-1.4 1c.5-1.7 1.5-3.6 1-4.5.1 1.8-1.5 4.3-2 5.5a11 11 0 0 0-2.6-3.3c0-2.7 1.2-5.7-.5-8.9 1.4 4.8 0 5.8-.6 8.2l-1.6-.5c.1-1.9-.1-5-1.4-6.3.9 2.6.9 3.9.3 6.1-1.7-.1-3.5.2-4.4 1.4-.6.8-.8 2-.8 3-1.7-1.9-4-2.7-6.6-1.7-1.4.6-3.2 1.4-3.7 3-.3.6-.4 1.6-.6 2.4 0 .4-.2.7-.3 1.1-2.5.5-4-.4-5.8-2.7 2.1 4 3.9 4.2 5.3 3.8-.7 1.8.3 4 1.6 5.6-1.1.3-2.3 1.7-2.7 2.8-.2.6-.4 1.2-.4 1.8-.7.5-2 1-3.3.4 1.2 1.3 2.5.7 3.3.4.2.9.4 1.8.8 2.6.7 2 1.4 2.8 3.4 3.6l2.4 1.1c.2 2.7-1.3 4.1-3.5 5.3 2.2-.6 4.5-2 4.8-4.4l.4.3c2.2 1.6 3.6-4.9 3.7-6.1v-.3c-.2.1-.2.2-.3.4-.6 1.4-1.2 3.6-2 4.8-.2.2-.5.7-.8.5-.9-.8-1.7-1.5-2.8-2l-2.5-1.3c-1.4-.7-2-2.3-2.4-3.6-.6-1.9-.4-3.6.9-5.1l1.1-1.1c.5.5 1 1 1.5 1.3 1.2.8 2.2 1 3.5 1 1.1 0 1.1-.4 2-1l.3-.2c-.5 2.3 0 4.8 1.7 6.4 1 1 2.6 1.5 4 1.1-1-.2-1.4-.1-2.3-.6-3.4-1.6-3.5-7-.9-9.3 1.8-1.6 3.5-2.4 5.4-.5.8.7 1.9 2.5 2.8 2.8h.3c.4 1-.3 3.7-.7 4.6-.5 1.4-2 4.4-4 3.4-.3-.2-.5-.5-.9 0 .6-.1.3 0 .8.3l.3.2c-.4 2.3 0 5.2 2.5 6.9-1.1-.7-2.6-3-1.6-6.7 1.3-.1 2.4-1.5 3-2.5.4-.7 1-2 1.3-3.2l1.3 3.2c.6 1.7 2 2.5 3.6 1.6-1.3.4-2.3.1-2.7-1.8l-1.4-3.5c1.9 1.9 4.7 1.6 6-.6-1.5 1.5-4.8 2.1-6.4-1.1 0-.5 0-1-.3-1.3-.4-.7-.5-.2-1-.7-.7-.7-1.4-1.7-2-2.5l-1.4-1c-.9-1.1-1.8-2-2.5-3.2-.2-1-.6-2-1-2.9-.2-1-.2-2 0-3 .7-2.7 4.7-2.2 6.6-1.4v.3h.6c1.8 1.1 3.4 4.3 4.1 6.2v.7c-.4 2-2.2 4.9-3.3 6.6l-.3.4.6-.4c1.4-1.5 3.5-4.8 3.8-6.8.2-.8 0-1-.2-1.8-.6-1.5-.2-2.7 1.3-3.3.5-.2.7-.3 1.2-.2 1 .3 2 .4 3.2.6.7 0 .7 0 1 .7l1 2.5c2.1 4.7-2.4 8.3-6.5 9.3l-1.8.4c1.4.4 4-.4 5.3-1.1a8.3 8.3 0 0 0 4.4-4.8c.3-.2.7-.3 1-.3l2.4.9V83c-2 2.2-7 .2-9.3-.5-.6-.2-1-.3-1.7-.3.7.4 2 .8 2.7 1.1 2.7 1.2 6 2.4 8.3 1.1V90c-1.9-.4-3.4-1-4.6-1.4-.9-.5-1.3-.5-1.9-.8l-1.8-2.4c-.5-.8-1-1.5-1.7-2.1 1.4 1.8 3.8 7.5 5 9.8l-.1-.2c-.1-1.2-.9-3.2-1.3-4.3.2 0 .3-.2.9-.1h-.3c3 3.6 0 21.3-9.3 16-1.1-.6-2.4-.5-2.8-.9-6 4.7-6.6 3.4-11.8-1.6-.9-.9-1.6-2.1-2-3.4v-.3c-.7-4.3 2.7-8 3.7-10.4-3.5 2.7-4.3 5.7-4.3 8v.6-.2c-.4 1.6-2 5-4.2 4.3-.7-.2-4-1-5.2-1.7.1-1.5 2-3.4 3.3-4.4-2 .8-4.5 3.6-5 4.6-1.5.7-2.2 1-2.7 1 .5-2.9 1.3-4.6 3.8-6-3.3 1.4-3.1 2.5-4.7 5.4-.2-.4-.7-.7-2-.8l-1.7-.1c.2-2.4 2.6-4.7 4.8-5.5-2.2.2-5.5 3-6 5.1a5.2 5.2 0 0 1-3-3.2 11 11 0 0 1 6.6-5c-2.3.3-5 1.6-7 4-.4-1.5-.6-3.2-.8-4.6-.2-.6-.2-1.2 0-1.8l-3.3 6c-1.9 3.8-1.9 5.2-3 7.2 1 1.5 3.4 4.2 5 7.5-.3 0-.1 0 0 0a3 3 0 0 0-.3 0c-1.3.7-1.8.3-2 1.6 0 .4 2 4.8 2.9 6-2.6-1.5-6.9-3.8-7.9-7.7 0-2.8 1.8-5.4 2-7.2 0 .2-.2.3-.3.5-.7.6-5.6 2.7-9.7 1.3-1.4-3.3-3-6.7-6.5-7.6a7 7 0 0 0 1.1-.9c5.2 1.8 8.6 5.7 10 7.3a18 18 0 0 0-9.3-8l.3-.5c6.6 1.1 11 6 12.5 8-1.7-3-6-8-12.1-8.6l.4-1.4c4.9.6 8.5 3.7 9.9 5a14.5 14.5 0 0 0-9.7-5.6v-2.2a19 19 0 0 1 9.2 3.4 15 15 0 0 0-9.2-4.1l-.5-2.3 2.2.2-2.3-.5-.3-1-.2-.6a21 21 0 0 1 5.2-.1c-1.4-.4-3.4-.7-5.5-.5a9.5 9.5 0 0 0-3.3-3.2c3.1-1 6-.7 7.5-.6-2-.5-5.2-.8-8.3.1-1-.5-2-1-3-1.3 3.6-1.4 7.2-1.2 8.8-1a15 15 0 0 0-10 .7l-1.1-.3c2.2-2 8.6-2 11.5-1.4-4-1.5-8.9-1.2-12.4 1.3l-3.7-.3h.4c5-4.2 11.4-3.3 13.7-2.9-3.2-1.2-10-2-14.3 2.9-1.5 0-2.9.2-4 .6 4.3-.3 15.9-1.5 16.6 9.6.4 6.2-5.8 9-10.7 10a13 13 0 0 0 5.3-6.4c.8-2.2-3-8-4.4-8.8-2.5-1.6-4.3-3-7.2-1.4 1.7-.2 3.2-3 9.3 7.3 2.1 3.6 1 4.6-1.5 7.4-.4.5-1.4 2-1.9 2h4.5c6.6 8.5-2.5 22.5-5.7 28.3a38 38 0 0 1-8 8.2c-1 .4-7.3 2.5-8.1 2.3-1.5-.1-3.5-2-5.2-5.1-2.2.8-6.2 1.6-7.7 1-.6-.2-1.4-.7-2-1.3h-.1v-.1h-.1v-.1h-.1v-.1H54v-.1H54v-.1h-.1v-.1c-.8-.9-1.2-1.8-.7-2.7-.5-.2-.9-.7-1.2-1.1v-.2h-.1v-.2h-.1v-.1h-.1v-.1l-.6-1c-1.8 1.9-6.7 3.5-6 .6-2.6.1-6.4-1.5-6.6-4.7-3.6 1.3-9.6-6-9.7-10.4-6.8-1.9-5.6-13.7-2.7-19.3-3.7-.1-2.1-3.1 0-5.4V85h.1V85h.1v-.1h.1v-.1l.1-.1.1-.1h.1v-.1h.1v-.1h.1v-.1h.1v-.1h.1V84h.1V84h.1v-.1h.1v-.1h.1l.1-.1h.1v-.1h.1v-.1h.1v-.1h.1l.1-.1V82.3h.1v-.5h.1V81.5h.1c.6-1.3 2-1.7 3.3-2.4h.1V79h.2V79h.2v-.1h.2v-.1h.2v-.1h.1v-.1h.1l.8-.6c.7-.5 3-3.3 4.3-4.5a55.2 55.2 0 0 1 5.8-1.6l-.1-.1-.5-.4c-4.5-3.9.7-9.7 6.3-10.8 4.4-.9 9 .7 10 2.4 2-9.5 16.2 1.4 18.2 9.4C77 66.4 64.9 52 58.5 60c-1.3 0-2.4-.3-3.5-.5a8.2 8.2 0 0 1-2-6.3c-.8 2.6.1 4.7 1.4 6.2a10 10 0 0 0-5.5.4l-1.3.5a8 8 0 0 1-3.3-4.7 6.6 6.6 0 0 0 2.9 4.9l-1.8.9c-2-.8-4.7-2.4-5.6-5.9.3 3.6 3 5.3 5.3 6l-2 1.4c-2-.7-4.9-2.3-5.8-6 .4 3.9 3.3 5.6 5.7 6.2-3 2.5-3.3 5.5-1.5 7.4-1.5-.5-2.7 0-4.6.8-1.5 1.1-2.5 4.5-3.2 6.1l-.3.6c-.8 0-2-.2-1.5-3.7-2 0-7.5-6-2.3-15.5 6-10.7 18-17 24.4-7.6l4-1H59.6c1.4-.3 4.2 1 5.4 1.8 1.7 1.3 2.2 2.7 5.2 3.5a12 12 0 0 1 6.6 5.7c1 1.5 3.6 8.5 3.2 10.1-.3 1.4-.2 2.8 0 4.1.3-.3.5-1.4 1-2.8 1.2-3.5 4-8.8 14.8-8.7l-1-.2c2.7.2 4.2-.8 7 .3 4.1 1.7 8.3 5 11.8 8.2a111 111 0 0 0-5.5 6c2.6 1.5 5.2 1.8 10.8-.5l2.7 3.5c-.4-4 1-9.3 4.9-7.4h.4v-.6l-.1-.1v-.2l-.1-.1v-.2h-.1v-.2l-.1-.1V72h-.1v-.2h-.1v-.2l-.1-.1v-.2c-.8-1.7-1.8-4-2.5-6.4 3.5-2 3-5.3 2.5-8.8 1-1 2-2.2 3.2-3l.2-.1.1-.1.2-.1.5-.3c1.6-.8 3.5-.8 5.9.6l2 2.1 7.7 2.5c-2.1-4.9-5-11.1-4.4-16.3 2 4.8 6.8 11.4 8.8 11-3.5-1.4-6.8-9-8-12.2 2.5-1.6 10-4 13.3-5a24.7 24.7 0 0 1 3.7 14.6c1.6-3.6-.8-11-2.6-14.9h.5c3.5 1.8.8 1.1 5.7 1.6 1 .1 2 .6 2.9 1.3l.1.1.1.1h.1v.1l.2.1v.1h.1v.1h.1v.1h.1v.1h.1v.1h.1v.1h.1v.1h.1v.1l.1.1.1.1.1.1v.1h.1v.1l.1.1v.1l.1.1.1.1v.1h.1v.1A7 7 0 0 1 169 45l.8 2.1c.9 4.6-3 8.7-1.3 12.8-.4-4.5 3.8-9.5 1.4-12.6 1.2-3.1 1.3-4.6 3.8-4.4 1.5.1 2.5.2 3.2.4zm0 17.2v2a8.3 8.3 0 0 1-3.3 3c0-.4-.2-.7-.3-1 1-1 2.3-2.4 3.6-4zm0 2.6v5.1l-.6-.2c-.6-.1-1.7-.5-2.2-.3-.2 0-.3 0-.5.2l.1-1.2c1-.7 2.3-2.3 3.2-3.6zm0 50.6v6.8c-2.4.1-4.5.6-5.7 1.6l-5 4 2.1-6.7c.2-.8.6-1.6 1.2-2.2l.4-.4h-.3c-.7.3-1.3 1-1.6 1.7-1.2 2.2-2.8 6.6-4.2 10-1 .9-1.9 1.8-2.4 2.5l-.1.1c-5.3-6.9 6.1-15.2 11-19.8-.6.5-.2 5.1-.8 6.5 1.2-.9 3-2.7 5.4-4zm0 8v12.8c-5 1-10.6 1.9-14.5-2.5a16 16 0 0 1 5.2-1.6c2.4.3 4.5 1.7 7.2 0-3.8.7-3.7-.3-7-1-1.2-.2-2.6.3-3.8.8 3.2-3.5 6.3-6.4 8.5-7.5 1-.6 2.6-.9 4.4-1zm0 28V160l-1 3.6c-.6-12.2-9.8-6.2-14.6-22.9 1.7 0 3.3.4 4.7 1 2.6 1.1 3.8 2 5.6 4 1.4 1.7 3.7 4.8 3.6 7v.5-.2c.3-.5.2-1.2.2-1.6-.6-3.3-4.2-7.9-7-9.5-2-1.2-4.2-2.2-6.4-2.5l.5-.2c8.9-2.6 13 3.4 14.4 10.5zm-67-5.4c-1.2 1.3-2.8 3-3 4 .8.2 1.8 4.4-3.2 5.4 3.7-.8 7.3 6 7 7-.6 1.7-3.9 1-6.6-.7h-.1v-.1h-.1l-.1-.1h-.1v-.1h-.1l-.1-.1h-.1l-1.4-1.2.3.7 1 2v.6h.1v1.3h-.1v.2h-.1v.1c-.5.6-1.5 1-3.5 1-2.3 0-5-1.4-6.4-3-2-2.3-2-5.1-.8-6.4l-.3.9c1.2-3 4-3 6-3.8.8.2 1.7 0 2.4-.6-4.4.9-6.5-5.2-3.8-7.2-.7-.1-2.9 2.2-1.5 5.2.5 1.1 1.1 1.9 1.9 2.3a7 7 0 0 0-4.7 3.2c-4.2 1-7.7-5.3-7.4-9.3.2-2.7 4-5 6.6-5a7.3 7.3 0 0 1-4.3-3.2 8 8 0 0 1-1-4c.2-2.4 3.4-2.7 5 .8 4.1-3.4 7 3.2 8.4 4.8 3.5-1.5 6-1.5 7.6-.8h.2v.1h.2l.2.2h.2v.1l.2.1.2.2.2.1v.1h.1l.1.2h.1v.1l.2.2.1.2.1.1.2.2v.2h.1v.2h.1v.2l.1.1v.1l.1.1V141.3h.1v.4h.1V143.6l-.4.8zm8.7-66.8c3.1-1.7 5-4.5 4.3-6.7-1.1.2-2.1.7-3.2 1.3-.6.4-.9.6-1.5.7l1-.8c1.3-1 2-1.5 3.2-2-3.4-2.4-6-.5-3.8 7.5zm21.7 43l1.5.2c2.2.5 3.6 1.7 1.4 3.5-1 1-2.2 1.5-3.2 2.4-1 .9-1.6 1.7-2.1 2.8-.3.6-.8 2.3-1.6 2.1-.7-.1-1.2-.6-1.3-1.3v-1.4l-.4 1.3c-.1.4-.3.6-.6 1-.8 1-1.2 1.3-2.3.6-1.6-1-2.3-1.6-4.4-1.4-1.1.2-1.8-.3-1.8-1.5 0-1.1.5-1.6 1.1-2.4-.5.2-.7.2-1.1.7-1.4 1.5-1 4.3 1.6 4.4l1.8.1c1.1.3 1.5.7 2.5 1.1 1.7.7 2.6 0 3.3-1.6l.6.7c2 1.5 3-.9 3.7-2.2 1-1.8 3.4-3.2 5-4.6 1.9-1.8 1.7-4-1.2-4.6l-1.3-.2c1-.3 1.7-1.7 2.2-2.6 1.5-2.9-2.8-4.4-5-4.2-.5 0-.5 0-.9.4 1.1.2 1.5.1 2.6.6.9.3 2 1 2.4 1.9.2.4 0 .8-.2 1.2-.3.9-.6 2-1.5 2.4l-.5.3.2.1a2 2 0 0 0-.5.2zm-13.4-47.7c3.9 4.5 9.4 3 11.5.4-2.8 1.6-7.3 2.8-11.5-.4zM95.2 8c1 1 2.6 1.8 4.3 1.4 2.7-.7 3.6-2.6 3.2-5 .3 2.5-1.9 4.4-3.4 4.6-1.3.2-2.2-.1-4-1zm56.1 55l.1.4c.3 1.6 1 2.8 1.8 3.8.1.7 0 1.2-.2 2 .3-.3.4-.3.5-.7l.1-.8 1.3 1.4c-1.6-.3-3.1.6-4.5 2-.9.8-1.4 1.8-1.7 3-.2 0-.3 0-.5.2-1 .4-.9.7-1.9.6-1.6-.1-2.6-.4-3.8-1.6-1-1-2.7-3.7-2-5.3.5-.9.8-1.5 1-2.4.3-.7.5-2.3.9-2.8.4-.8 2.2-1.6 3-2 2.4-1 4.5.4 6 2.2zm2.1 28.4c.7 2.4.8 5-.7 7 2.4-1.1 2.1-3.8 1.5-6l.2.2c.8.6 2 .6 3.1.7 1 2 1.3 4.4 1.1 5.7.5-.2.2-3.9 0-5.5 1.7.3 3.4 1 5.2.5 4.2-1 4.5-7.2 2-9.9-.3-.4-.4-.5-1-.7.9 1 1.2 1.5 1.6 2.7.9 3.3-.4 7.6-4.6 6.9l-2.1-.6-3.5-.3c-1.2 0-1.5-.4-2.1-1.5a51 51 0 0 1-2.3-4.7c-.2-1 0-2.2.4-3.1l-.3.2c-.3.3-.5 1-.6 1.5-.2.9-.2 1.4.1 2.3.4 1 1.2 3.1 2 4.6zm-51 59c-2-.7-6-8.4-2.8-11.7-3.4 2-2.8 10.1 2.8 11.8zm38.7-14l.9.4c.1 3-4 6.7-4.9 9.8.4-3.5 4.6-6.6 4-10.1zm-8-13.8c.1 0 2 .6 2.2-.2 0-.3-.2-1-2-.5 1.6-.5 1-1.5.4-1.7-.4-.1-.8 0-1.5.7 0-.2-.3-1-.8-1-.4-.1-1.2.2-1.2 1.2-.3-1-1.7-.4-2 0-.2.3.2 1.1 1.1 1.2-1.4.9-1 1.7-.5 2 .5.5 1.6-.2 1.7-1.4 0 .7.3 1 .6 1 .4.1.9-.3 1.1-.6.1.7.6 1.1 1.2.8.5-.3.7-.8-.3-1.5zm-10.3-6.3c.6-1.2.3-2.5 1.7-3.3a7 7 0 0 1 3.2-.8c1.6.3 3 3 4.4 1.7 1.2-.8.8-3.2 3.4-1.7.8.5 1.3 1 2 1.6l.2.1v-.3c-.7-1-2.3-2.5-3.5-2.7-1.9-.2-2.1 1.8-2.7 2.1-.2.2-.8-.3-.9-.4-1.2-1.1-2.4-1.8-4-1.3-1.1.3-2.7.9-3.3 1.8a5 5 0 0 0-.5 3.2zm.1 11c-.2-.4-.5-.6-1-.8-.5-.4-1.7-1.1-1.9-1.8-.1-.5 0-2-.2-2.5-.1-1-.4-1.7 0-2.7.2-1.3 1-1.9 2-2.6l.3-.4-.7.2c-2.6 1-3.2 3.2-2.8 5.6 0 .6.3 2.3.5 2.7.4 1 1.7 1.5 2.6 2l1.2.3zM38.2 85.2c-1.4.6-6-2.5-8.6-2.3-.6 1.7-2.4 6-3.2 7.6 3.2-1.8 2.6-6.5 3.2-7 3.3 1.2 6.7 2.5 8.6 1.7zm10.9.3c-2-.8-11.4-4.6-16.4-6.9 4.1 3.4 7 4.9 16.4 7zm-16.5 22c-1.1-3.2.4-5.7 3.2-7-1.7 0-1.5-5.7 1.7-7.1a3 3 0 0 0-.9.2c.2-.1.4-.3.5-.6 0 0 3-2.1 3.6-1 .2.5 3 1.2 4 1.8-4.2 0-6 7.6-.5 9.7.5.8.4 3.7 4 3.9-2.9-.7-3.2-3.5-2.9-4.5-4.6-.4-4-8.1 0-8 1.5 2.3 7 5.3 7.4 6.5-.8 3.5-1.3 3.4.1 6.7-1.5.9-3.3 2.6-6.5 1 1.5 2.3 4.6 2 6.9 1.1 0 6-7.5 4.2-8.6 2.7 1.7 2.8 5.8 2.4 8.3 1.5 0 7.9-6.8 4.6-8 3.4.8 1.4 4 2.6 5.3 2.5 0 1-1.3 2.4-1.9 2.6 5.2-1.2 5.4-8.8 6.1-13 .3-1.4 1.6-2.4 1.8-2.6-1.4-1.6-2.8-5-1.1-6.6-3.8-1.9-3.4 0-6.6-4.6-1.2-1.7-6-5.8-8.4-5.9-4 0-4.5.8-7.7 3-3.8 2.6-6 2.1-5.7 8.2.1 1.5.9 6.4 3.5 5.1h.1c-2.2-.7-1.8-3.6-2.7-5.6-1.1-2.7 2.7-5.9 4.8-6.8-1 2-.6 1.3-1 3.1 0 .2-.2.2 0 .2 1.7-2.6 3-2.7 4.3-3.2a5.8 5.8 0 0 0-1.5 6.3c-2 2-3.6 4.6-1.6 7zm9 3c-4 .4-4.4-5.4-3.2-6.7.3 1.7 2.3 2.6 2.6 3-.2 1-.8 1.4.6 3.7zm-3.2-7c-1.3.4-1.8 2.7-1.4 4 .7 2.3 3.2 3.6 4.7 3l.4.7c.1.2 1.3 1 1.7 1-1.6-1.2-1.5-.9-2-2.6-.6-2 .9-3.3 1.2-4.4-2.4.9-5-2.3-4.4-2.8l-.2 1.2zm6.7 19c-3.1 2.4-8.4-4-7.9-6-4 .4-10.1-5.6-6.5-9-2.9 4.7 4.8 8.4 7.5 7.5-.5 3 2.6 7.8 7 7.5zm15.2-41c1.7 3.8 4.4 5.6 6.1 9 .1.1.2 0 .2.3-.9-1.3-5.7-3.4-7.3-6.5l-1-.9c-3.8-1.2-3.9-1-7.6-2.9-1.8-1-8.7-5.6-13.6-4.1 6-2.5 9.6 1.7 11.6 2.5 4.5 1.7 3.1 2.2 8.5 3.3 1.7.4 2.1-.7 3.1-.7zM50 89.3c-4-3.7-16.8-1.7-20.4 2l-.5.5c4.3-6.6 20.9-6.6 21-2.5zm21.5 13c4-5.6 10.2-15.2 7.4-21.2.5 8-5.3 15.8-7.4 21.2zm15.2-4.8c2.4 0 4.4 3 4.1 5.3-.2 2.2-3 12.6-6.1 14.5 2.3-3 5-11 5.2-14.4.3-3.2-1.5-3.2-3.2-5.4zm-28 31.1c-1.7-2.1-1.1-6 .3-7.5.4-.5 10.3-12.6 9-13.9-1.2 3.3-3.3 4.8-5.3 7-2.4 2.8-3.9 4.4-5 7.7-1 2.5-1.4 4.8 1 6.7zM81.2 81c3 6.5-3.7 16.6-6.2 20.9-.7 1.3-2.5 5-3.8 5.7 0 2.6-7.6 14.6-9 16.4l-3.5 4.6a67.4 67.4 0 0 0 13.9-22.1 49.9 49.9 0 0 0 9.8-19.3c2.1 5.2 1.7 16.5-.3 19a10 10 0 0 0-2.4 5.5c-.4 3.3-4.2 8-8.6 10.9-2.8 1.8-5.5 3-8.8 2.7 4.4 2.4 12.3-3.5 16.3-9.2 3-4.3 1.3-2.1 3.3-7.6 1.5-4 2.5-4.4 2.3-9.3-.2-3.2 1.2-5.6.6-8.8-.7-3.8-1-6.6-3.6-9.4zm-35.3-9.2c1-.4 1.5-1.9 3.6-1.7.7 0 3.3-.8 4.4.2.2.2 3.8 2.2 4.2 2.3l5.8 2.3c2.8 1.1 3.3-.4 5.3 2.1.6.7.8 1.3 1.2 2.2 1.6 1.7-3.7 12.6-1 18.9-2.2-5.5 4-11.7 1.8-19.8-1.7-6.1-11.7-4-17.2-8.6-.3-.2-1.6-.5-3.2-.4 2.6-.4 12.7-1.2 14.2-.4 2.4 1.4 4.8 2.1 7 4.6 1 1.3 5.2 4.3 4.5 6-.3.8-.3 1-1.7 2.5 3.1-1.7 4.8-4.4 1.1-6.7-1.9-1.1-3.3-4.1-5.6-5.6-3.2-2-12.4-3.2-19.7-.4-1.9 0-4 .6-4.7 2.5zm67.2 48.7c-2.8-1.3-5-1.7-8-.4-.1 0-1.1.4-1.2.6 2-1 6.5 4 9 1.8l.2-2zm.2 1.6c-.3 3 .2 7 4 6.6 2.9-.2 3.9 0 6.4-.3-1.5 1.5-2.9 4.8-2.9 5v.9c-1.7-1-8.1.5-9.8 1.5-1.7 1.1-2 1.2-3.6 2.4h.6v.1h.5v.1H110.3v-.1h.2l.2-.1h.1l.1-.1h.1l.2-.1.1-.1h.1l.1-.1h.1l-.1.1v.1h-.1v.1h-.1v.1l-.1.1h-.1v.1l-.1.1v.1h-.1v.1h-.1v.1h-.1v.1l-.1.1v.1h-.1v.1l-.1.1-.1.2v.1l-.1.1v.2h-.1v.7h.1v.1h.2l.1.1H110.7v.1h.5v.1H113.6h-.2v.1h-.1l-.1.1h-.1v.1h-.1v.1h-.1v.1h-.1l-.1.1-.1.1-.1.1-.1.1-.1.1-.1.1-.1.1-.1.1-.1.1-.1.1-.1.1-.1.1v.1h-.2v.1l-.1.2h-.2v.2h-.1l-.1.1-.1.1v.1h-.1l-.1.1-.1.1-.1.2h-.2v.1h-.1v.1h-.1c6 .4 9.8-5.7 11.2-8.5l-.2-.6c.7 3.4 4 1.8 5.8 3.4 3.6 4.3 7 2 7 2 2.5-1.3 4.2-4.5 3.9-6.8l.7.8c.3 3.3-4 4.9-4.3 7.4.7 4 2 8.1 2.8 9.8 1.3-7 9.5-7.7 7-15 .4-.1.9-.3 1.4-.7.7-.4 1.5-2.8 3.4-4.5 3.5-3.1 4.4-4.2 3.3-6.6-.8-2-3.9-5-6.7-3.8 1.6-2.4 5.6-5.7 4.4-9.1-1.6-4.6-5.7-7.2-10.5-5a7.1 7.1 0 0 0-4.2 4.1h-.3c.1-2-.2-2.3-1.4-5.3-1-2.8-4.6-2.4-6.6-1.6-2.4.9-5.9 4-6.4 4.4l-.4.2c-2.5 2-.4 5 .5 7v.2-.1h-.1a9 9 0 0 0-.8-.2c-2.1-.5-5.8-.4-5.5 1.6.2 1.8 0 2.3-.4 3.4 0 .7 0 1-.2 1.4zm-11 37c-2.4-5 .7-4.4.2-8-2.2 2.7-2 6.2-.2 8zm-11-24.9v.8c-.1 1.2.2 2.6.8 3.7a4.7 4.7 0 0 0 3.7 2.5c.6 0 1 0 1.5-.2l-1.8-.4a5.1 5.1 0 0 1-3-2.5c-.5-1-.7-2-1-3.2 0-.5 0-.2-.2-.7zm-40.2-9.8c1.5 1.1 6.3-7.6 6.7-9.5a22 22 0 0 1 7-12.2c-2.8-.6-4.9.2-6-2.5 1 0-.7 2.6 9.6.9-2.3 1-10.3-7-11.6-7.8a19.2 19.2 0 0 1-6.8-8l-2-4.5c2.1 2.5 2.3 5.2 6.1 8.7 2 1.8 3 3.6 5.3 5.1 3 1.8 5.8 4.1 9 5.6l2.5 1c-1.7.7-4 .6-5.6 2a28.6 28.6 0 0 0-7.1 13.3c-.5 2-5.6 9.3-7 7.9zM133.5 99l.7-.3-.7.3zm-7.9-42.3c-.4-2.7-1-5.6.3-8-4.8 2-7.7 11.7-4.7 16 0-.8 0-1.6.4-2.6.4-1.5.7-2.4.7-4v-.8l.2.4c.3 1.3 0 3-.3 4.2a6.1 6.1 0 0 0 0 3.4l1.3-.8c2.8-1.8 2.5-4.7 2.1-7.8zm-49.3 2.4zm17.2 4.5c1.2-11 0-14.7-3.9-19.8-3.8-5.2-19.7-16.6-26.5-9.6-1.2 1.3-2 3-3.5 4.5-4.4 4.7-2.7 8.3-.4 11.1l.1.1.1.1v.1h.1c3.1-2.2 5.2.9 6.4 1.3 3.2 1.1 2.2 0 4 1.3-.6-2.5-.6-4.8-.3-6.5 0 1.4.2 4.1 1.1 7l.7.5a53 53 0 0 1 2.2 1.7 17.6 17.6 0 0 1-1.3-9.6c0 1.6.2 5.1 1.7 8.6-.2-3.6 1-7.1 2-9.1-.7 2-2.2 7.4-.4 12.8.2-2.8 1.1-5.3 2-7-.5 1.5-1.4 4.5-1.3 8l.3.3 1 1.6c-.2-4.1 1.7-8 3.3-9.9a19 19 0 0 0-2.5 10c.6-3.8 3-7 4.8-8.6a18.3 18.3 0 0 0-4.3 11c.4.9.8 1.9 1 2.8.5-5 3-10.1 5-11.9-1.2 1.5-3.2 7-3.9 12.3 1.5-5.6 6.6-10.9 9.3-12.2-2 1.4-7.8 8.8-9.4 15 1.5-2.7 5.8-6.5 12.6-6zm-7 60.4c1.6 5.5 5 6.5 8.1 5.8a5.6 5.6 0 0 0 4.2-6.4c-2.3-3.4-6.5-6.2-7.5-8.2-.2 2-1.9 5.4-4.9 8.8zm12-1.9c3.9-.8 4.1-1.3 5.2-2.7 3.2-4.2.7-13.6-.2-17-1.6-2.7-3.8-5.7-7.3-6.5-1.2.5-2.7.9-4.6 1 5.7 5.5.2 16.6.3 17.7 1.9 2.8 2.3 4 6.5 7.5zM112 108c-2-1.3-4.2-2.1-7.4-2.4 3.3 7.7 6.8 7.6 12.3 9.3-2.2-1.6-4.6-3.8-5-6.9zm9 27.1zm-9.5 54.6c-2.8-.5-5.6-2.5-4.8-6.5.3.8.6 1.6 1 2.2.2.5.5 1 1 1.4l-.7-1c-.3-.6-.7-1.5-1-2.6 2.6.6 5.2 2.8 4.5 6.5zm2.7-6.9c-2.5.9-5.9.6-7.3-3 1.5 1.3 3.5 2 5.7 2.2-1.3-.5-3.7-.7-5.5-2.7 2.5-.8 6-.1 7.1 3.5zm-.9-12.1c-2.3 1.1-5.5 1.3-7.4-1.7.7.4 1.6.6 2.6.7l1.5-.1-.6-.1a8.3 8.3 0 0 1-3.7-1.3c2.4-1.2 5.9-1 7.6 2.5zm-23.7 5.6c1-2.5 3.2-4.9 6.9-3.8-1.9.8-2.3 2.5-4 3.1 1.8-.2 2-2 4.3-2.6-1 2.5-3.6 4.6-7.2 3.3zm9.4 11.3c-2.2-1.4-4-4.1-2.2-7.4-.2 1.4-1 2 1.2 4.7-1.5-2.9-.9-4-.7-5 2.3 1.5 3.8 4.5 1.7 7.7zm-6.8 3.5c-1-2.3-1-5.5 2-7.2a18 18 0 0 0-.8 4.2l-.2 1.2.5-1.5c.2-1.6.4-2.7 1-4.1v-.1l.2-.1c1.2 2.5 1 6-2.7 7.6zm55.4-27.5c.2-6.4 13-13.4 19.4-4.2-8.4.8-11.6 9-19.2 5l-.2-.8zM47.2 31.5C45 17.8 59.7 16.8 67.8 22 63 25.5 56.3 37.8 48 32.4l.8-1.7c.7-.7 1.6-.7 2.7-.5l1.7.4.2-.1a6.3 6.3 0 0 0-3.6-1c1.2-3.1 4.7-2.4 7.3-2h.7l-.7-.3c-1.8-.7-2.8-1-4.3-.9 2.5-1.8 7-4 10.2-3.9h.4l-1.2-.2c-2.9-.1-7 1.7-10 3.7l1.3-2.2a6 6 0 0 0 .7-3.3l-.1-.3-.1.6c-.2 1-.4 1.7-.9 2.5-.6 1.2-1.8 2.4-2.2 3.8a12.3 12.3 0 0 0-1.6 1.6c-.4-.7-.7-1.6-.9-2.4v.1c-.2.3 0 1 0 1.3l.6 1.5a7 7 0 0 1-.3.5l-1.5 1.9zm-20 44.8C17 75 14.1 64.5 18 61.6c.1 6.7 7.8 2.4 8.8 10.5v3a78.9 78.9 0 0 0-3.4-3.5c1 1.5 2.7 3.6 3.6 4.7zM17 96.3c-3.3-3.7-5.8-6.5-1-10.7 2.9-2.6 5-.6 6.5.3-2 .7-3.9 1.4-6.4 5 3.2-2.8 5.3-3.6 7-4.2-2.2 1.2-3.6 3.5-4.9 5.4-.7 1-1.8 3-1.2 4.3zm26.9-59.5c-5.6 14.1-16.3 7-19 5.9.6-5.9 9.3-17.3 18.5-6.9H40l-1-.5c-1.2-.7-2.7-1.6-3.1-3l-.2-.4v.5c0 1 1 2 1.7 2.7l1.4 1a40.2 40.2 0 0 0-3.9.8 6.6 6.6 0 0 1-4.1-2.3l-.6-.6.3.8c.7 1.1 1.9 2.1 3.2 2.6l-2.6 1c-1.8.9-3.8 2-4.9 3.7l-.2.5.3-.4A12 12 0 0 1 31 39l2-.8c-.8 1-1 2.2-1.2 3.7 0 .7 0 .8-.4 1.5.5-.2.7-1 .8-1.4.5-2 .8-3.4 2.7-4.3l2.2-.6c-.8 1-1 2.4-.7 4.4l.2.9.1-1.2c0-2.5.3-3.8 2.3-4.4a20.1 20.1 0 0 1 4.9 0zm-4-10.6C21 26 26.4 5.7 39 .2c2.8 6.1 15.8 17.4 1.7 25.6l-.5-1.2v-.2l-.5-1.2c2.1-1.2 5.5-4.2 5.9-6.5v-.5l-.2.5c-.8 2-3.9 4.6-6 5.8-.5-1.6-1-3.2-1.4-5 .2-.8.7-1.6 2-3 1.4-1.6 2.8-3.9 2.3-6.2 0-.3 0-.2-.2-.5V9c-.1 2.9-2.2 4.5-4 6.5l-.4.4C37 12 36.7 8 37 5.8l.2-1c-.3.4-.4.8-.4 1.4a36 36 0 0 0 .1 9.4c-1.7-1.2-3.9-1.8-4.8-3.4-.4-.5-.4-1-.6-1.6v.7c.1 2.8 3.8 3.7 5.6 5.5-.1.5.8 4 1 4.8-2.3-1.3-4.6-2-6.2-4.5l-.3-.5.1.6c1.2 3 4.4 4 6.8 5.5.3.9.6 1.7 1 2.3l.4 1.2zm82.4 59l.5-.2c-.3-.2-.5-.5-.6-1l-.7 2-.2.2c2.9 1 7.7 0 9.2-2.5-1 1-5.2 2.7-8.2 1.6zm34.1-64.9c2.7-5 9-1.3 11.5 1.6 2.6 3 2.7 5.2 2 7.1a8.8 8.8 0 0 0-3.3 3.6c-4.6-1.8-1.5-13-10.2-12.3zm12.3 13.2c2.5 0 4 1.6 5.8 3.2.8-3.4-2-5.6-4.6-5a9 9 0 0 0-1.2 1.8zm-41.2 2.1c-.3-2.8.7-4.5 2-6.4 2.6-3.5 7.2-4.5 11.7-2-8.2 2-9.7 7.4-12.7 10.2.1-1.3.4-2.6 1-3.8l.1-.5-.4.3a6 6 0 0 0-1.4 3c0-.3-.2-.5-.3-.8zm-.2 4.8c-5.7.4-7.5-1.1-14.5-7.3 6-2.3 11-.9 14 4.8l.2.7c-.5-.5-1.1-1-1.9-1.4-1.6-.9-3-1.3-4.7-1.8-.8-.3-2.7-1.6-3.5-2.1l.1.2c.4.5 2.6 2 3.3 2.3 1.4.6 2.7 1 4 1.9 1.6.8 2.5 1.7 3 2.7zm-1.8-15.7c-2.3-3.4-1-6.6 1.5-9l1.6-1.3c2.5-1.8 5.4-2.8 7.1-2.4-4.9 8.2-5.6 7.4-8.6 9.8-.4.8-.7 2-1 3l.2-1.6c.1-.9 0-3.4-.2-4.2v.4c-.2 1.2-.1 2.5-.3 3.7l-.3 1.6zm-11.4 37.5c-5.5 0-12-4-12.6-9.3-.2-2 3.9-10.3 4-12.3 6.7 8.8 18.6 12.2 9.6 21.5a22 22 0 0 1-9.3-19.2c-2 10.5 3.8 16.2 8.3 19.3zm-60 74.9c-.1 3.9-3 12 1 17.3 3 3.8 8 3.5 20 2.6-7-1.5-3.8-23-19.9-20.2l.6 1.6h.1v.1l.1.2.5 1.2c1.2 1.7 4 3 6 2.8h.4l-.2.1c-.2.2-.7.3-.9.3-1.3.2-2.7 0-4-.8 2.2 2.4 6.4 5 9.3 5.4l.6.2-1 .1c-2.3.1-5.2-1.1-7.3-2.7 2 3 4.5 5.4 8.2 7.3l1.3.6h.2l-.1.1-1.2-.3a20 20 0 0 1-10.4-9c.2 3 .4 5.9 2.2 8.7l.4.7-.7-.5c-2.5-2.7-3-8-3.4-11.5l-1-2.2-.3-.5-.5-1.6zm-14.3 3.1c-12.8 1.2-17 10.5-16.7 15 .8 12.2 11.8 12 18.6 21.6-.3-2.7 1-5.3 2.7-7.1a22 22 0 0 0 5-8c3.4-8.6-2.6-19.4-8.4-21.3l-.7 1.3h.1l-.1.3c.5 3.7 3.4 8.3 6.1 10.6l.6.5c-.6-.1-.9-.3-1.4-.7a19 19 0 0 1-6.2-8.7c-.6 1.4-1.3 3-1.6 4.4.4 3.4 2.4 9.2 4 11.7a11 11 0 0 0 2.3 2.6l.3.3c-.9-.2-1.8-1-2.4-1.7-1.8-2-3.9-6-4.9-9.4l-.9 6.3a32.2 32.2 0 0 0 2.5 11.8l.2.5-.2-.1c-1-1-2-4.1-2.3-5.6-.4-1.7-1-4.9-1-6.7v-.3a22.3 22.3 0 0 1-6.8 6.5h-.3l.6-.5c1.7-1.5 5.5-5.5 6.7-8 .2-2.2.6-4.4.9-6.5v-.5l.1-.4c-1 .9-2.3 1.7-3.3 2.4-3.3 2.5-5 4.6-7 8l-.5.7.1-.5a19 19 0 0 1 3.7-6.1c2-2.1 3.7-3.3 5.9-5 .5-.4 1.3-1.1 1.8-1.8a36.4 36.4 0 0 1 2.5-5.6zm-2.7-6c-1.7 4-9.5 5.2-15.9 1.8-4.7-2.4-9-7-7.4-16.4l-.3-3c6 2.6 10.4-.5 15.5 2 3.5 1.8 8.1 7.2 8.3 14.8-.7 0-1.2-.2-1.8-.4l-.4-.1-2-.7-.9-.2-.7-.5c-4.4-3.5-3.7-8.6-3.7-9.3-.2 0-.2.8-.2 1-.4 3.3.2 5.6 2.2 7.8-.8-.4-1.5-.9-2.3-1.5l-2-1.4c-1.5-1.6-2.9-3.9-2.8-5v-.7-.2l-.3 1c0 1 .5 2.3 1.2 3.6-1.3-1.1-2.5-2.3-3.5-4l-2-3.4c.3 1 1.5 3.3 1.7 3.6 1.3 2.4 3 3.8 4.8 5.3l1 1.2-3.9-1.4c-2-.8-4.5-2.3-5.5-4.2l-.1-.3c.2 2.6 4.7 4.8 6.7 5.6 1 .4 3.8 1.3 5.2 2 .3.2 1.6.7 2.3.8l1.6.7 1.4.4c-2.9 1-6.2 1-9-.4h-.2l.7.5c2.6 1.6 7 1.5 9.6.3l.4.2 1 .3 1.3.3z"/></svg>
